<svg width="25" height="25" viewBox="0 0 25 25" fill="none" xmlns="http://www.w3.org/2000/svg">
<mask id="mask0" mask-type="alpha" maskUnits="userSpaceOnUse" x="0" y="0" width="25" height="25">
<path d="M20.5 2H4.5C3.12 2 2 3.12 2 4.5V20.5C2 21.88 3.12 23 4.5 23H20.5C21.88 23 23 21.88 23 20.5V4.5C23 3.12 21.88 2 20.5 2ZM18.86 16.5L16.995 16.495C16.995 16.495 16.955 16.5 16.89 16.5C16.74 16.5 16.43 16.46 16.065 16.21C15.41 15.755 14.785 14.625 14.29 14.625C14.255 14.625 14.225 14.63 14.195 14.64C13.765 14.775 13.635 15.205 13.635 15.73C13.635 15.915 13.505 16 13.155 16H12.19C11.11 16 10.065 15.975 8.89 14.69C7.16 12.795 5.54 9.425 5.54 9.425C5.54 9.425 5.45 9.23 5.545 9.115C5.635 9.01 5.845 9 5.925 9C5.945 9 5.955 9 5.955 9H7.955C7.955 9 8.14 9.035 8.275 9.135C8.39 9.22 8.45 9.375 8.45 9.375C8.45 9.375 8.79 10.035 9.215 10.78C9.93 12.01 10.315 12.42 10.59 12.42C10.635 12.42 10.68 12.41 10.725 12.385C11.135 12.16 11.015 10.34 11.015 10.34C11.015 10.34 11.02 9.68 10.805 9.39C10.64 9.16 10.325 9.095 10.185 9.075C10.075 9.06 10.255 8.8 10.495 8.68C10.805 8.53 11.32 8.5 11.94 8.5H12.24C12.825 8.51 12.84 8.57 13.07 8.625C13.76 8.79 13.525 9.435 13.525 10.98C13.525 11.475 13.435 12.17 13.79 12.405C13.815 12.42 13.85 12.43 13.895 12.43C14.125 12.43 14.62 12.135 15.41 10.8C15.85 10.04 16.19 9.285 16.19 9.285C16.19 9.285 16.265 9.15 16.38 9.08C16.49 9.015 16.49 9.015 16.635 9.015H16.65C16.81 9.015 18.4 9 18.75 9H18.79C19.125 9 19.43 9.005 19.485 9.21C19.565 9.52 19.24 10.075 18.385 11.225C16.975 13.11 16.815 12.97 17.985 14.06C19.105 15.1 19.335 15.605 19.375 15.67C19.84 16.44 18.86 16.5 18.86 16.5Z" fill="black"/>
</mask>
<g mask="url(#mask0)">
<rect x="1" y="1" width="23" height="23" fill="#0E77A5"/>
</g>
</svg>
