<svg width="37" height="47" viewBox="0 0 37 47" fill="none" xmlns="http://www.w3.org/2000/svg">
<path d="M37 46.9346H0V0H25.4375L37 11.1749V46.9346Z" fill="#FF5722"/>
<path d="M35.2656 12.2925H24.2812V1.67627L35.2656 12.2925Z" fill="#FBE9E7"/>
<path d="M9.24963 40.2296C8.78713 40.2296 8.44026 40.1178 8.09338 40.0061C6.82151 39.3356 6.70588 38.3298 6.93713 37.5476C7.39963 36.2066 9.94338 34.5303 13.2965 33.0776C14.7996 30.3956 15.9559 27.6019 16.6496 25.2552C15.4934 23.1319 14.9153 21.1204 14.9153 19.6677C14.9153 18.8854 15.1465 18.2149 15.4934 17.6562C15.9559 17.0975 16.6496 16.7622 17.5746 16.7622C18.6153 16.7622 19.4246 17.321 19.7715 18.3267C20.3496 19.6677 20.0028 22.1262 19.1934 24.9199C20.3496 26.8196 21.7371 28.6076 23.2403 29.9486C25.4371 29.5016 27.4028 29.2781 28.6746 29.5016C30.8715 29.8369 31.2184 31.2896 31.2184 31.8484C31.2184 34.1951 28.6746 34.1951 27.7496 34.1951C26.0153 34.1951 24.2809 33.5246 22.7778 32.2954C20.0028 32.9659 17.2278 33.8599 15.0309 34.8656C13.8746 36.7653 12.7184 38.3298 11.6778 39.2238C10.6371 40.0061 9.82776 40.2296 9.24963 40.2296ZM10.6371 36.9888C10.059 37.3241 9.59651 37.6593 9.36526 37.9946C9.59651 37.8828 10.059 37.6593 10.6371 36.9888ZM26.3621 31.7366C26.8246 31.8484 27.2871 31.9601 27.7496 31.9601C28.4434 31.9601 28.7903 31.8484 28.9059 31.8484C28.7903 31.7366 27.9809 31.5131 26.3621 31.7366ZM18.2684 27.7136C17.8059 29.0546 17.1121 30.5074 16.534 31.8484C17.9215 31.4014 19.309 30.9544 20.6965 30.6191C19.7715 29.7251 18.9621 28.7194 18.2684 27.7136ZM17.5746 18.9972C17.459 18.9972 17.459 18.9972 17.459 18.9972C17.3434 19.1089 17.2278 19.8912 17.6903 21.5674C17.8059 20.2264 17.8059 19.2207 17.5746 18.9972Z" fill="white"/>
</svg>
