<svg width="23" height="24" viewBox="0 0 23 24" fill="none" xmlns="http://www.w3.org/2000/svg">
<path d="M8.92008 0.559998C4.04305 0.559998 0.0800781 4.52297 0.0800781 9.4C0.0800781 14.277 4.04305 18.24 8.92008 18.24C10.8498 18.24 12.6332 17.6184 14.0876 16.5662L20.9288 23.3912L22.3913 21.9287L15.6313 15.1525C16.9598 13.6047 17.7601 11.5958 17.7601 9.4C17.7601 4.52297 13.7971 0.559998 8.92008 0.559998ZM8.92008 1.6C13.2345 1.6 16.7201 5.08562 16.7201 9.4C16.7201 13.7144 13.2345 17.2 8.92008 17.2C4.6057 17.2 1.12008 13.7144 1.12008 9.4C1.12008 5.08562 4.6057 1.6 8.92008 1.6Z" fill="black"/>
</svg>
