<svg width="42" height="12" viewBox="0 0 42 12" fill="none" xmlns="http://www.w3.org/2000/svg">
<path d="M0.00306773 11.016L0 10.541L21.036 10.5197L42 10.4984L41.997 11.0021L42 11.5147H21.0109H0.0144319L0.00306773 11.016ZM0.00525141 8.55133V8.06105L2.61246 8.04333L5.12608 8.06695L5.14899 7.1755L5.12509 6.30766L3.02879 6.29086L0.932484 6.27406L0.909884 4.44939L0.887284 2.62471H7.01012H13.1329L13.133 4.46621L13.133 6.30771H11.0157H8.89842L8.87452 7.17554L8.89742 8.04338H13.9715H19.0923L19.0684 7.17554L19.0446 6.30771L16.9483 6.29091L14.852 6.27411L14.8294 4.44943L14.8068 2.62476H20.9312H27.0557L27.0331 4.44943L27.0105 6.27411L24.9142 6.29091L22.8179 6.30771L22.7941 7.17554L22.8281 8.04338H27.891H32.93L32.988 7.17554L32.9642 6.30771L30.8679 6.29091L28.7716 6.27411L28.749 4.44943L28.7264 2.62476H34.8509H40.9753L40.9527 4.45105L40.9302 6.27736L38.9525 6.26835C37.8648 6.26335 36.8419 6.28406 36.7651 6.31376C36.6478 6.35916 36.7172 6.50216 36.7073 7.20546L36.6957 8.04306H39.2532H41.9978L41.9929 8.5528L41.9978 9.04725L38.75 9.05906H35.6895V7.84417C35.6895 7.17598 35.6671 6.34959 35.6974 5.99332L35.7166 5.31011L37.9244 5.33373H40.0503V4.48707V3.6404H34.8934H29.7365V4.48707V5.33373H31.8748H34.013V7.1964V9.05907H27.8918H21.7706L21.754 8.35279C21.7451 7.96444 21.7461 7.12613 21.7759 6.49012L21.7647 5.35043L23.9638 5.33373H26.0471V4.48707V3.6404H20.932H15.817V4.48561V5.33083L17.9343 5.35343L20.0515 5.37603L20.0741 7.21753L20.0967 9.05903H13.9739H7.85102V7.19636V5.3337H9.98925H12.1275V4.48703V3.64036H7.01236H1.89739V4.48703V5.3337H4.03562H6.17384V7.19636V9.05903H3.11264H0.0111073L0.00525141 8.55133ZM0.00911251 0.955383C0.00911251 0.955383 0.00198316 0.69989 0.00525141 0.451561L0.0110922 0H21.015H41.9966L41.9947 0.510086L41.9986 1.016H21.0709C9.57195 1.016 0.194703 0.95956 0.194703 0.95956L0.00911251 0.955383Z" fill="#0E77A5"/>
</svg>
